<?xml version="1.0" encoding="UTF-8" standalone="no"?>

<!DOCTYPE svg PUBLIC "-//W3C//DTD SVG 1.1//EN" "http://www.w3.org/Graphics/SVG/1.1/DTD/svg11.dtd">

<!-- Uploaded to: SVG Repo, www.svgrepo.com, Generator: SVG Repo Mixer Tools -->
<svg fill="#000000" width="800px" height="800px" viewBox="0 0 64 64" version="1.1" xmlns="http://www.w3.org/2000/svg" xmlns:xlink="http://www.w3.org/1999/xlink" xml:space="preserve" xmlns:serif="http://www.serif.com/" style="fill-rule:evenodd;clip-rule:evenodd;stroke-linejoin:round;stroke-miterlimit:2;">

<rect id="Icons" x="-896" y="-192" width="1280" height="800" style="fill:none;"/>

<g id="Icons1" serif:id="Icons">

<g id="Strike">

</g>

<g id="H1">

</g>

<g id="H2">

</g>

<g id="H3">

</g>

<g id="list-ul">

</g>

<g id="hamburger-1">

</g>

<g id="hamburger-2">

</g>

<g id="list-ol">

</g>

<g id="list-task">

</g>

<g id="trash">

</g>

<g id="vertical-menu">

</g>

<g id="horizontal-menu">

</g>

<g id="sidebar-2">

</g>

<g id="Pen">

</g>

<g id="Pen1" serif:id="Pen">

</g>

<g id="clock">

</g>

<g id="external-link">

</g>

<g id="hr">

</g>

<g id="info">

</g>

<g id="warning">

</g>

<g id="plus-circle">

</g>

<g id="minus-circle">

</g>

<g id="vue">

</g>

<g id="cog">

</g>

<g id="logo">

</g>

<path id="hammer" d="M55.821,44.743c-1.522,1.579 -5.373,5.562 -8.547,8.764l-13.283,-14.197l7.953,-7.953l13.877,13.386Zm-24.682,-8.284l7.953,-7.953c0,0 -4.039,-3.082 -3.667,-5.007c0.372,-1.925 1.212,-4.647 7.062,-7.062c5.849,-2.414 11.306,-2.632 11.306,-2.632l0.196,-2.637c0,0 -13.444,-2.031 -20.546,0.492c-7.102,2.523 -15.135,12.021 -15.135,12.021c0,0 1.401,4.593 -0.999,6.994c-2.401,2.401 -5.628,-0.367 -5.628,-0.367l-3.681,4.674l9.289,9.288l4.665,-3.689c0,0 -2.208,-3.307 -0.026,-5.287c4.695,-4.261 9.211,1.165 9.211,1.165Z"/>

<g id="radio-check">

</g>

<g id="eye-slash">

</g>

<g id="eye">

</g>

<g id="toggle-off">

</g>

<g id="shredder">

</g>

<g id="spinner--loading--dots-" serif:id="spinner [loading, dots]">

</g>

<g id="react">

</g>

<g id="check-selected">

</g>

<g id="turn-off">

</g>

<g id="code-block">

</g>

<g id="user">

</g>

<g id="coffee-bean">

</g>

<g id="coffee-beans">

<g id="coffee-bean1" serif:id="coffee-bean">

</g>

</g>

<g id="coffee-bean-filled">

</g>

<g id="coffee-beans-filled">

<g id="coffee-bean2" serif:id="coffee-bean">

</g>

</g>

<g id="clipboard">

</g>

<g id="clipboard-paste">

</g>

<g id="clipboard-copy">

</g>

<g id="Layer1">

</g>

</g>

</svg>